<svg width="17" height="16" viewBox="0 0 17 16" fill="none" xmlns="http://www.w3.org/2000/svg">
<path fill-rule="evenodd" clip-rule="evenodd" d="M8.70802 1.29196C8.80114 1.38485 8.87503 1.4952 8.92544 1.61669C8.97586 1.73818 9.0018 1.86842 9.0018 1.99996C9.0018 2.13149 8.97586 2.26173 8.92544 2.38322C8.87503 2.50471 8.80114 2.61506 8.70802 2.70796L3.41402 7.99996L8.70802 13.292C8.80099 13.3849 8.87475 13.4953 8.92506 13.6168C8.97538 13.7383 9.00128 13.8685 9.00128 14C9.00128 14.1314 8.97538 14.2616 8.92506 14.3831C8.87475 14.5046 8.80099 14.615 8.70802 14.708C8.61504 14.8009 8.50466 14.8747 8.38318 14.925C8.26171 14.9753 8.13151 15.0012 8.00002 15.0012C7.86853 15.0012 7.73833 14.9753 7.61685 14.925C7.49537 14.8747 7.38499 14.8009 7.29202 14.708L1.29202 8.70796C1.19889 8.61507 1.12501 8.50471 1.07459 8.38322C1.02418 8.26173 0.99823 8.13149 0.99823 7.99996C0.99823 7.86842 1.02418 7.73818 1.07459 7.61669C1.12501 7.4952 1.19889 7.38485 1.29202 7.29196L7.29202 1.29196C7.38491 1.19883 7.49526 1.12494 7.61675 1.07453C7.73824 1.02412 7.86848 0.998169 8.00002 0.998169C8.13155 0.998169 8.26179 1.02412 8.38329 1.07453C8.50478 1.12494 8.61513 1.19883 8.70802 1.29196Z" fill="#001B36"/>
<path fill-rule="evenodd" clip-rule="evenodd" d="M2 8C2 7.73478 2.10536 7.48043 2.29289 7.29289C2.48043 7.10536 2.73478 7 3 7H16C16.2652 7 16.5196 7.10536 16.7071 7.29289C16.8946 7.48043 17 7.73478 17 8C17 8.26522 16.8946 8.51957 16.7071 8.70711C16.5196 8.89464 16.2652 9 16 9H3C2.73478 9 2.48043 8.89464 2.29289 8.70711C2.10536 8.51957 2 8.26522 2 8Z" fill="#001B36"/>
</svg>
