<svg width="20" height="20" viewBox="0 0 20 20" fill="none" xmlns="http://www.w3.org/2000/svg">
<path fill-rule="evenodd" clip-rule="evenodd" d="M13.6047 12.4156L18.0881 16.899C18.2457 17.0567 18.3341 17.2705 18.3341 17.4934C18.334 17.7164 18.2454 17.9301 18.0877 18.0877C17.93 18.2453 17.7161 18.3338 17.4932 18.3337C17.2703 18.3336 17.0565 18.245 16.8989 18.0873L12.4156 13.604C11.0753 14.642 9.38998 15.1305 7.70235 14.9701C6.01473 14.8097 4.45161 14.0123 3.33098 12.7403C2.21036 11.4683 1.61641 9.81715 1.66996 8.12276C1.72351 6.42837 2.42054 4.81802 3.61925 3.61931C4.81796 2.4206 6.42831 1.72357 8.1227 1.67002C9.81709 1.61647 11.4682 2.21042 12.7403 3.33104C14.0123 4.45167 14.8096 6.01479 14.97 7.70241C15.1305 9.39004 14.642 11.0754 13.6039 12.4156H13.6047ZM8.33391 13.3331C9.65999 13.3331 10.9318 12.8064 11.8694 11.8687C12.8071 10.931 13.3339 9.65922 13.3339 8.33314C13.3339 7.00706 12.8071 5.73529 11.8694 4.79761C10.9318 3.85993 9.65999 3.33314 8.33391 3.33314C7.00783 3.33314 5.73606 3.85993 4.79838 4.79761C3.8607 5.73529 3.33391 7.00706 3.33391 8.33314C3.33391 9.65922 3.8607 10.931 4.79838 11.8687C5.73606 12.8064 7.00783 13.3331 8.33391 13.3331Z" fill="#C9D6DF"/>
</svg>
